<svg xmlns="http://www.w3.org/2000/svg" viewBox="0 0 301.13 45.93"><defs><style>.a{fill:#11b98f;}.b{fill:#232d2a;}</style></defs><title>logo-fix</title><path class="a" d="M298.37,15.89a4.77,4.77,0,0,1,.72,8.23l-8.75,6.14h0l-0.24.17h0l-6.33,4.43h0a3.36,3.36,0,0,1-.7-0.12,3.2,3.2,0,0,1-1.2-.67,22.63,22.63,0,0,0,2.52-4,39.31,39.31,0,0,0,3.87-13.92,23.57,23.57,0,0,0,.21-4.89,0.33,0.33,0,0,0,0-.05h0Z"/><path class="a" d="M285.26,11.67a21.55,21.55,0,0,1-.2,4.84A37.45,37.45,0,0,1,282,27.89a22.72,22.72,0,0,1-1.77,3.16,12.46,12.46,0,0,1-.32-2c-0.35-4.06,1-8.07,2.49-11.79a31.41,31.41,0,0,1,2.22-4.68A9.23,9.23,0,0,1,285.26,11.67Z"/><path class="a" d="M285,10.66l0,0Z"/><path class="a" d="M283.41,8.92h0a16.34,16.34,0,0,0-2.79,4.56C278.5,18,276.71,23,276.71,28a14.31,14.31,0,0,0,1.11,5.69l-0.38.28a3.58,3.58,0,0,1-.92.47l-0.33.09-0.35,0h0a0.56,0.56,0,0,1-.5-0.15s-0.22-.18-0.26-0.23a3.43,3.43,0,0,1-.37-0.53c-1.3-2.36-1.1-5.74-1-8.33a50.71,50.71,0,0,1,.47-5.62c0.29-2-2.74-2.57-3.09-.57a61,61,0,0,1-2.91,11.49c-0.66,1.71-1.74,4.87-3.63,5.51a0.78,0.78,0,0,1-.46,0,2.12,2.12,0,0,1-.85-0.6,4.81,4.81,0,0,1-.93-2.57,25.45,25.45,0,0,1,1-9.13,85.9,85.9,0,0,1,4.8-13.64c0.8-1.85-2-3.19-2.84-1.34A91.74,91.74,0,0,0,260.31,23a1.43,1.43,0,0,0-.07.48l-1.6-18.3A4.74,4.74,0,0,1,265.37.46l18,8.46h0Z"/><path class="a" d="M280.64,37.06l-11.36,8a4.74,4.74,0,0,1-7.45-3.51l-0.3-3.45a4.18,4.18,0,0,0,2.55,1.15c3,0.24,4.84-2.73,6-5,0.33-.65.61-1.33,0.89-2a10.28,10.28,0,0,0,1.22,3.25,4.53,4.53,0,0,0,6,1.66,8.69,8.69,0,0,0,1.43-.86,6.32,6.32,0,0,0,1,.8"/><path class="b" d="M1.63,19.87a1.06,1.06,0,0,0-1.19-.78H0v-2H1.19c1.63,0,2.18.31,2.69,1.9l3.5,10.85c0.27,0.82.51,1.84,0.51,1.84H8s0.27-1,.54-1.84l4.18-12.68H15l4.18,12.68c0.27,0.82.54,1.84,0.54,1.84h0.07s0.2-1,.48-1.84L23.8,19c0.51-1.6,1.05-1.9,2.69-1.9h1.19v2H27.2a1.08,1.08,0,0,0-1.19.78l-4.9,14.31H18.56L14.38,22c-0.27-.85-0.51-1.84-0.51-1.84H13.8s-0.24,1-.54,1.84L9.11,34.18H6.53Z"/><path class="b" d="M37.33,16.67c4.73,0,7.17,3.64,7.17,7.89,0,0.41-.07,1.16-0.07,1.16H31.31a6.49,6.49,0,0,0,6.63,6.8,7.62,7.62,0,0,0,5.13-2.11l1.12,1.73a9.7,9.7,0,0,1-6.36,2.45,8.66,8.66,0,0,1-8.94-8.94C28.9,20,32.74,16.67,37.33,16.67Zm4.79,7.21c-0.14-3.54-2.31-5.27-4.83-5.27a5.87,5.87,0,0,0-5.88,5.27H42.13Z"/><path class="b" d="M48.89,13a0.68,0.68,0,0,0-.75-0.75H46.72v-2h2.41a1.77,1.77,0,0,1,2.07,2.07v6.19c0,0.78-.07,1.39-0.07,1.39H51.2A6.19,6.19,0,0,1,57,16.67c4.59,0,7.45,3.67,7.45,9s-3.23,8.94-7.72,8.94a6.23,6.23,0,0,1-5.61-3.3H51.07a13.21,13.21,0,0,1,.07,1.39v1.5H48.89V13Zm7.68,19.51c3,0,5.51-2.55,5.51-6.9,0-4.18-2.24-6.87-5.41-6.87-2.86,0-5.54,2-5.54,6.9C51.14,29.11,52.9,32.55,56.58,32.55Z"/><path class="b" d="M68.07,30a7,7,0,0,0,5.27,2.58c1.9,0,3.6-.92,3.6-2.72,0-3.74-9.59-3.06-9.59-8.57,0-3.09,2.65-4.62,6.09-4.62,1.73,0,5.2.68,5.2,3.09v1.46H76.46V20.41c0-1.26-1.84-1.73-3-1.73-2.38,0-3.81.82-3.81,2.48,0,3.84,9.59,3,9.59,8.64,0,2.86-2.58,4.79-6,4.79a8.2,8.2,0,0,1-6.56-3Z"/><path class="b" d="M83.71,19.83A0.68,0.68,0,0,0,83,19.08H81.53v-2h2.41A1.77,1.77,0,0,1,86,19.15V31.42a0.67,0.67,0,0,0,.75.75h1.43v2H85.78a1.77,1.77,0,0,1-2.07-2.07V19.83Zm-0.07-9.55h2.24V13.2H83.64V10.28Z"/><path class="b" d="M92.14,19H89.9V17.08h2.28V12.35h2.28v4.73h4.28V19H94.45v8.7c0,4,2.55,4.52,3.84,4.52a4,4,0,0,0,.78-0.07v2.07a6.6,6.6,0,0,1-1,.07c-2,0-5.95-.65-5.95-6.36V19Z"/><path class="b" d="M109.68,16.67c4.73,0,7.17,3.64,7.17,7.89,0,0.41-.07,1.16-0.07,1.16H103.66a6.49,6.49,0,0,0,6.63,6.8,7.62,7.62,0,0,0,5.13-2.11l1.12,1.73a9.7,9.7,0,0,1-6.36,2.45,8.66,8.66,0,0,1-8.94-8.94C101.25,20,105.09,16.67,109.68,16.67Zm4.79,7.21c-0.14-3.54-2.31-5.27-4.83-5.27a5.87,5.87,0,0,0-5.88,5.27h10.71Z"/><path class="b" d="M121.11,14.46a0.67,0.67,0,0,0-.75-0.75H119V10h4.11a2,2,0,0,1,2.31,2.31V29.79a0.68,0.68,0,0,0,.75.75h1.33v3.64h-4.08c-1.63,0-2.31-.68-2.31-2.31V14.46Z"/><path class="b" d="M138,16.43c5,0,7.68,3.64,7.68,8.23,0,0.51-.1,1.6-0.1,1.6h-12a5,5,0,0,0,5.2,4.66A7.88,7.88,0,0,0,143.71,29l1.8,3a10.55,10.55,0,0,1-7,2.62,8.88,8.88,0,0,1-9.31-9.08C129.23,20.17,132.84,16.43,138,16.43Zm3.26,6.83a3.37,3.37,0,0,0-3.26-3.5,4.15,4.15,0,0,0-4.25,3.5h7.51Z"/><path class="b" d="M158.37,23.3h0.54V23.16c0-2.48-1-3.4-3.2-3.4-0.78,0-2.31.2-2.31,1.16v0.92h-4V20c0-3.23,4.56-3.57,6.36-3.57,5.78,0,7.48,3,7.48,6.9v6.46a0.68,0.68,0,0,0,.75.75h1.36v3.64h-3.87c-1.6,0-2.21-.88-2.21-1.9a7.47,7.47,0,0,1,0-.75h-0.07A5.64,5.64,0,0,1,154,34.59c-3.09,0-5.92-1.94-5.92-5.41C148.07,23.74,155.55,23.3,158.37,23.3ZM155,31.22c2.31,0,3.94-2.45,3.94-4.56V26.26h-0.75c-2.24,0-5.81.31-5.81,2.72A2.31,2.31,0,0,0,155,31.22Z"/><path class="b" d="M168.67,21.26a0.67,0.67,0,0,0-.75-0.75h-1.36V16.84h3.94c1.53,0,2.31.65,2.31,2.11v1a8,8,0,0,1-.07,1.09h0.07a6,6,0,0,1,5.51-4.45,5.56,5.56,0,0,1,.78.07v4.25a7.7,7.7,0,0,0-1.05-.07,4.88,4.88,0,0,0-4.72,3.64,10.48,10.48,0,0,0-.37,2.82v6.87h-4.28V21.26Z"/><path class="b" d="M182.75,21.26a0.67,0.67,0,0,0-.75-0.75h-1.36V16.84h4c1.53,0,2.28.71,2.28,1.94v0.51a4.84,4.84,0,0,1-.07.75h0.07a6.67,6.67,0,0,1,6.12-3.6c3.84,0,6.05,2,6.05,6.6v6.77a0.68,0.68,0,0,0,.75.75h1.36v3.64h-4.11c-1.63,0-2.31-.68-2.31-2.31v-8c0-2.11-.54-3.54-2.72-3.54a4.75,4.75,0,0,0-4.66,3.54,7.31,7.31,0,0,0-.34,2.31v8h-4.28V21.26Z"/><path class="b" d="M211.54,16.43c5,0,7.68,3.64,7.68,8.23,0,0.51-.1,1.6-0.1,1.6h-12a5,5,0,0,0,5.2,4.66A7.88,7.88,0,0,0,217.22,29l1.8,3a10.55,10.55,0,0,1-7,2.62,8.88,8.88,0,0,1-9.31-9.08C202.74,20.17,206.34,16.43,211.54,16.43Zm3.26,6.83a3.37,3.37,0,0,0-3.26-3.5,4.15,4.15,0,0,0-4.25,3.5h7.51Z"/><path class="b" d="M223.27,21.26a0.67,0.67,0,0,0-.75-0.75h-1.36V16.84h3.94c1.53,0,2.31.65,2.31,2.11v1a8,8,0,0,1-.07,1.09h0.07a6,6,0,0,1,5.51-4.45,5.56,5.56,0,0,1,.78.07v4.25a7.7,7.7,0,0,0-1.05-.07,4.88,4.88,0,0,0-4.72,3.64,10.48,10.48,0,0,0-.37,2.82v6.87h-4.28V21.26Z"/><path class="b" d="M237.21,28.67s2.21,2.55,5.17,2.55c1.33,0,2.35-.54,2.35-1.7,0-2.45-9.15-2.41-9.15-8,0-3.47,3.13-5.07,6.73-5.07,2.35,0,6.09.78,6.09,3.6v1.8h-3.81V21c0-.82-1.22-1.22-2.18-1.22-1.53,0-2.58.54-2.58,1.56,0,2.72,9.21,2.18,9.21,8,0,3.26-2.89,5.3-6.66,5.3a9.51,9.51,0,0,1-7.21-3.09Z"/></svg>